# xmcd
#
# Track frame offsets:
#	150
#	13762
#	28676
#	46638
#	60664
#	74473
#	87769
#	106262
#	122441
#	135538
#	152159
#	166543
#
# Disc length: 2370 seconds
#
# Revision: 0
# Processed by: cddbd v1.5.2PL0 Copyright (c) Steve Scherf et al.
# Submitted via: EasyCDDAExtractor 12.0.0.1
#
DISCID=8b09400c
DTITLE=Candela - Jenny Öhlund-åren - Upp Till Dans 27
DYEAR=2009
DGENRE=Dansband
TTITLE0=Ingenting Är Bättre
TTITLE1=Varje Litet Ögonkast
TTITLE2=Du Finns I Mina Tankar
TTITLE3=Viva! Fernando Garcia
TTITLE4=Malmö - Köpenhamn
TTITLE5=Av Hela Mitt Hjärta
TTITLE6=Kan Vi Träffas Nå'n Gång
TTITLE7=När Du Ser På Mig
TTITLE8=Nätterna Med Dig
TTITLE9=Sommar En Dag I Juni
TTITLE10=Jag Önskar Mig
TTITLE11=Jag Ville Vara Nära Dig
EXTD=
EXTT0=
EXTT1=
EXTT2=
EXTT3=
EXTT4=
EXTT5=
EXTT6=
EXTT7=
EXTT8=
EXTT9=
EXTT10=
EXTT11=
PLAYORDER=
